P3
# Testing image created by Jacob Kline and Emery Jacobowitz
3 4
255
255
0
0
0
0
255
0
0
0
0
0
255
255
0
0
0
0
0
0
255
0
0
0
255
0
0
0
0
0
255
0
255
0
0
0
0
