P3
# This image was created by the the Jacob Kline and Emery Jacobowitz's Image Editor on: 06/09/2022 12:01:25
3 4
255
255
100
100
100
255
100
100
100
255
100
100
255
255
100
100
100
255
100
100
255
100
100
100
255
255
100
100
100
100
100
100
100
100
100
100
100
