P3
# This image was created by the the Jacob Kline and Emery Jacobowitz's Image Editor on: 06/09/2022 12:01:25
3 4
182
54
54
54
182
182
182
18
18
18
18
18
18
54
54
54
182
182
182
182
182
182
18
18
18
54
54
54
0
0
0
0
0
0
0
0
0
